<svg viewBox="0 0 42 37" xmlns="http://www.w3.org/2000/svg" fill="none">
  <g clip-path="url(#clip0)">
    <path d="M7.46166 0.284607C3.35338 0.284607 0 3.69558 0 7.87442V29.1256C0 33.3036 3.35338 36.7154 7.46166 36.7154H34.323C38.4304 36.7154 41.7846 33.3044 41.7846 29.1256V26.0898H26.8613C22.7538 26.0898 19.3997 22.6788 19.3997 18.5C19.3997 14.3212 22.753 10.9102 26.8613 10.9102H41.7846V7.87442C41.7846 3.69641 38.4312 0.284607 34.323 0.284607H7.46166ZM26.8613 13.9459C24.355 13.9459 22.3842 15.9507 22.3842 18.5C22.3842 21.0493 24.355 23.054 26.8613 23.054H41.7846V13.9468H26.8613V13.9459ZM26.8613 16.9817C27.6856 16.9817 28.354 17.6616 28.354 18.5C28.354 19.3384 27.6856 20.0183 26.8613 20.0183C26.037 20.0183 25.3687 19.3384 25.3687 18.5C25.3687 17.6616 26.037 16.9817 26.8613 16.9817Z" fill="#9173FF"/>
  </g>
  <defs>
    <clipPath id="clip0">
      <rect width="41.7846" height="36.4308" transform="translate(0 0.284607)" fill="white"/>
    </clipPath>
  </defs>
</svg>
