<svg width="124" height="30" viewBox="0 0 124 30" fill="none" xmlns="http://www.w3.org/2000/svg">
<path d="M110.228 13.3621H113.817C116.158 13.3621 117.758 11.9965 117.758 9.85066C117.758 7.62676 116.158 6.30023 113.817 6.30023H110.228V13.3621ZM114.442 18.6682H110.189V28.6172H104.024V0.955078H114.442C120.06 0.955078 123.922 4.66157 123.922 9.81164C123.922 15.0397 120.06 18.6682 114.442 18.6682Z" fill="white"/>
<path d="M87.8146 29.2027C79.8554 29.2027 73.4568 23.4674 73.4568 14.8449C73.4568 6.22247 80.0114 0.370117 87.7365 0.370117C96.0469 0.370117 99.7144 5.71527 100.612 9.69487L94.7984 11.5286C94.3692 9.61684 92.6135 6.37853 87.7365 6.37853C84.03 6.37853 79.8554 9.0316 79.8554 14.8449C79.8554 20.034 83.6789 23.0382 87.8146 23.0382C92.6135 23.0382 94.5253 19.839 95.0715 17.8492L100.963 19.5268C100.065 23.3504 96.398 29.2027 87.8146 29.2027Z" fill="white"/>
<path d="M70.2386 28.6172H63.9961V0.955078H70.2386V28.6172Z" fill="white"/>
<path d="M47.9379 23.9817C43.9778 23.9817 39.7925 21.3895 37.7408 19.5094C35.4946 17.4499 29.3293 10.7542 29.2986 10.7235C25.2566 6.19994 19.8177 1.18457 14.3892 1.18457C7.85542 1.18457 2.15566 5.71326 0.677002 11.7174C0.789564 11.3229 2.86685 5.82597 10.6644 5.82597C14.6245 5.82597 18.8098 8.41818 20.8615 10.2983C23.1076 12.3577 29.273 19.0534 29.3037 19.0842C33.3457 23.6026 38.7845 28.618 44.2131 28.618C50.7469 28.618 56.4466 24.0893 57.9304 18.0852C57.8178 18.4797 55.7405 23.9766 47.943 23.9766L47.9379 23.9817Z" fill="#00A2DE"/>
<path d="M29.2985 19.0839C29.2985 19.0839 27.5077 17.1372 25.5174 15.0368C24.443 16.3175 22.8876 18.0593 21.107 19.6218C17.7864 22.5368 15.6273 23.1515 14.3891 23.1515C9.72799 23.1515 5.92645 19.4527 5.92645 14.9036C5.92645 10.3544 9.72287 6.68122 14.3891 6.6556C14.5579 6.6556 14.7626 6.67097 15.0133 6.71708C13.6114 6.17917 12.1225 5.82568 10.6643 5.82568C2.86679 5.82568 0.789501 11.3175 0.676938 11.7171C0.426231 12.7417 0.288086 13.8072 0.288086 14.8984C0.288086 22.4599 6.51996 28.6177 14.2919 28.6177C17.5306 28.6177 21.1582 26.9527 24.8983 23.6741C26.6635 22.1218 28.1985 20.4671 29.3497 19.13C29.3343 19.1146 29.319 19.0993 29.3036 19.0788L29.2985 19.0839Z" fill="url(#paint0_linear_6_70)"/>
<path d="M29.298 10.7184C29.298 10.7184 31.0888 12.6651 33.0791 14.7655C34.1535 13.4848 35.7089 11.743 37.4895 10.1805C40.8101 7.26552 42.9692 6.65076 44.2074 6.65076C48.8685 6.65076 52.6701 10.3495 52.6701 14.8987C52.6701 19.4223 48.8736 23.1211 44.2074 23.1467C44.0386 23.1467 43.8339 23.1313 43.5832 23.0852C44.9851 23.6231 46.474 23.9766 47.9322 23.9766C55.7297 23.9766 57.807 18.4797 57.9196 18.0852C58.1703 17.0606 58.3084 15.995 58.3084 14.9038C58.3084 7.34236 51.9742 1.18457 44.2074 1.18457C40.9687 1.18457 37.4383 2.84953 33.7033 6.12822C31.9381 7.68048 30.4032 9.33519 29.252 10.6723C29.2673 10.6877 29.2827 10.703 29.298 10.7235V10.7184Z" fill="url(#paint1_linear_6_70)"/>
<path fill-rule="evenodd" clip-rule="evenodd" d="M103.962 0.894531H114.44C117.263 0.894531 119.648 1.8258 121.329 3.40811C123.01 4.99063 123.982 7.22114 123.982 9.81206C123.982 12.4418 123.01 14.6725 121.329 16.2454C119.648 17.818 117.262 18.7296 114.44 18.7296H110.248V28.6786H103.962V0.894531ZM104.084 1.01646V28.5567H110.126V18.6077H114.44C117.236 18.6077 119.59 17.705 121.246 16.1564C122.9 14.608 123.86 12.4104 123.86 9.81206C123.86 7.25291 122.9 5.05513 121.245 3.49688C119.59 1.93843 117.236 1.01646 114.44 1.01646H104.084ZM110.165 6.23968H113.816C114.997 6.23968 115.998 6.57453 116.704 7.19614C117.411 7.81855 117.817 8.72354 117.817 9.85107C117.817 10.9402 117.411 11.8352 116.704 12.4572C115.998 13.0786 114.998 13.4235 113.816 13.4235H110.165V6.23968ZM110.287 6.36161V13.3015H113.816C114.975 13.3015 115.944 12.9636 116.624 12.3657C117.302 11.7685 117.695 10.9078 117.695 9.85107C117.695 8.75472 117.302 7.88449 116.624 7.28766C115.945 6.69003 114.975 6.36161 113.816 6.36161H110.287Z" fill="white"/>
<path fill-rule="evenodd" clip-rule="evenodd" d="M87.7361 0.431006C80.0432 0.431006 73.5173 6.25748 73.5173 14.8449C73.5173 23.4318 79.8867 29.1417 87.8141 29.1417C96.3196 29.1417 99.9741 23.3743 100.89 19.5694L95.1133 17.9245C94.8299 18.9197 94.2122 20.1976 93.0785 21.2348C91.9209 22.2938 90.2285 23.0991 87.8141 23.0991C83.6478 23.0991 79.794 20.0705 79.794 14.8449C79.794 11.9224 80.8438 9.78916 82.3642 8.38685C83.8835 6.98559 85.869 6.3175 87.7361 6.3175C90.1894 6.3175 91.8629 7.13254 92.977 8.19242C94.0651 9.22756 94.6161 10.4928 94.8425 11.4505L100.539 9.65357C99.6259 5.70229 95.9748 0.431006 87.7361 0.431006ZM73.3954 14.8449C73.3954 6.18733 79.9787 0.309082 87.7361 0.309082C96.0801 0.309082 99.7683 5.67932 100.671 9.68139L100.683 9.73607L94.753 11.6066L94.7385 11.5419C94.5259 10.5951 93.9845 9.31925 92.8929 8.28075C91.8026 7.24354 90.1598 6.43942 87.7361 6.43942C85.8967 6.43942 83.9416 7.09787 82.4469 8.47647C80.9533 9.85404 79.9159 11.954 79.9159 14.8449C79.9159 19.9974 83.7092 22.9772 87.8141 22.9772C90.1987 22.9772 91.8616 22.1828 92.9962 21.1448C94.132 20.1057 94.7415 18.8193 95.0123 17.8329L95.0286 17.7736L101.035 19.4841L101.022 19.5407C100.12 23.3838 96.4333 29.2636 87.8141 29.2636C79.8231 29.2636 73.3954 23.5029 73.3954 14.8449Z" fill="white"/>
<path fill-rule="evenodd" clip-rule="evenodd" d="M63.9343 0.894531H70.2988V28.6786H63.9343V0.894531ZM64.0563 1.01646V28.5567H70.1768V1.01646H64.0563Z" fill="white"/>
<defs>
<linearGradient id="paint0_linear_6_70" x1="21.7005" y1="26.8247" x2="2.59111" y2="7.06398" gradientUnits="userSpaceOnUse">
<stop offset="0.22" stop-color="#FF0079"/>
<stop offset="0.89" stop-color="#612083"/>
</linearGradient>
<linearGradient id="paint1_linear_6_70" x1="36.8857" y1="2.99297" x2="55.9952" y2="22.7537" gradientUnits="userSpaceOnUse">
<stop offset="0.21" stop-color="#FF3100"/>
<stop offset="0.68" stop-color="#FF9800"/>
</linearGradient>
</defs>
</svg>
